<svg width="366" height="121" viewBox="0 0 366 121" fill="none" xmlns="http://www.w3.org/2000/svg">
<path d="M1.03436 2.64553C1.03436 1.91974 1.62408 1.2393 2.4406 1.2393H32.9693C33.7859 1.2393 34.3756 1.91974 34.3756 2.64553V10.6746C34.3756 11.4004 33.7859 12.0809 32.9693 12.0809H12.511V21.244H29.3403C30.0661 21.244 30.7466 21.9245 30.7466 22.6502V30.6794C30.7466 31.4959 30.0661 32.0856 29.3403 32.0856H12.511V42.0653H32.9693C33.7859 42.0653 34.3756 42.7457 34.3756 43.4715V51.5006C34.3756 52.2264 33.7859 52.9068 32.9693 52.9068H2.4406C1.62408 52.9068 1.03436 52.2264 1.03436 51.5006V2.64553Z" fill="#333333"/>
<path d="M38.5489 50.9562L61.6382 1.28466C61.865 0.831037 62.364 0.46814 62.9084 0.46814H63.6341C64.1331 0.46814 64.6775 0.831037 64.9043 1.28466L87.9936 50.9562C88.4473 51.9088 87.8575 52.8615 86.7235 52.8615H78.5129C77.1974 52.8615 76.6077 52.4078 75.9273 51.0016L73.2509 45.1499H53.2009L50.5245 51.047C50.1616 51.9088 49.3451 52.8161 47.8481 52.8161H39.7283C38.6396 52.8161 38.0499 51.8635 38.4581 50.9109L38.5489 50.9562ZM68.8962 35.1702L63.2713 23.0131H63.1805L57.6463 35.1702H68.8508H68.8962Z" fill="#333333"/>
<path d="M91.5319 45.8757L94.9794 39.7518C95.5691 38.7992 96.9754 38.9353 97.4744 39.2982C97.7465 39.4342 103.099 43.3354 107.953 43.3354C110.902 43.3354 113.034 41.4755 113.034 38.8899C113.034 35.8053 110.448 33.4464 105.413 31.4505C99.062 28.9556 91.1237 24.0111 91.1237 15.1655C91.1237 7.86217 96.7939 0.46814 108.18 0.46814C115.846 0.46814 121.743 4.36929 123.966 6.00232C124.873 6.50131 124.692 7.86217 124.419 8.36116L120.654 14.0314C120.155 14.8479 118.795 15.5284 118.159 14.984C117.479 14.6211 112.126 10.5385 107.59 10.5385C104.959 10.5385 102.963 12.3077 102.963 14.3036C102.963 17.0253 105.186 19.112 110.992 21.4708C116.753 23.7389 125.916 28.2752 125.916 38.3002C125.916 45.921 119.339 53.5872 108.497 53.5872C98.9259 53.5872 93.5732 49.5954 91.8948 47.917C91.169 47.1912 90.9422 46.8736 91.5319 45.8303V45.8757Z" fill="#333333"/>
<path d="M144.47 28.003L128.185 3.37133C127.595 2.41872 128.185 1.2393 129.364 1.2393H138.935C139.525 1.2393 139.888 1.6022 140.115 1.91974L150.367 17.0253L160.618 1.91974C160.845 1.64756 161.117 1.2393 161.798 1.2393H171.415C172.594 1.2393 173.184 2.41872 172.594 3.37133L156.082 27.9576V51.5006C156.082 52.2264 155.402 52.9068 154.676 52.9068H145.876C145.059 52.9068 144.47 52.2264 144.47 51.5006V28.0483V28.003Z" fill="#333333"/>
<path d="M201.444 12.0809H190.875C190.059 12.0809 189.469 11.4004 189.469 10.6746V2.64553C189.469 1.91974 190.059 1.2393 190.875 1.2393H223.627C224.443 1.2393 225.033 1.91974 225.033 2.64553V10.6746C225.033 11.4004 224.443 12.0809 223.627 12.0809H213.057V51.4552C213.057 52.181 212.377 52.8615 211.651 52.8615H202.805C202.08 52.8615 201.399 52.181 201.399 51.4552V12.0809H201.444Z" fill="#333333"/>
<path d="M221.903 50.9562L244.992 1.28466C245.219 0.831037 245.718 0.46814 246.262 0.46814H246.988C247.487 0.46814 248.031 0.831037 248.258 1.28466L271.348 50.9562C271.801 51.9088 271.211 52.8615 270.077 52.8615H261.867C260.551 52.8615 259.962 52.4078 259.281 51.0016L256.605 45.1499H236.555L233.878 51.047C233.515 51.9088 232.699 52.8161 231.247 52.8161H223.128C222.039 52.8161 221.404 51.8635 221.857 50.9109L221.903 50.9562ZM252.25 35.1702L246.625 23.0131H246.534L241 35.1702H252.205H252.25Z" fill="#333333"/>
<path d="M290.264 26.3699L275.339 3.2806C274.75 2.32799 275.339 1.19394 276.61 1.19394H287.406C287.905 1.19394 288.358 1.55684 288.585 1.87437L297.068 15.6191H297.159L305.777 1.87437C305.914 1.6022 306.458 1.19394 306.957 1.19394H317.753C319.023 1.19394 319.658 2.28263 319.023 3.2806L304.054 26.3699L319.568 50.7748C320.248 51.8181 319.568 52.8615 318.388 52.8615H308.136C307.683 52.8615 307.093 52.5893 306.866 52.181L297.204 37.2569H297.068L287.633 52.181C287.406 52.4532 286.952 52.8615 286.362 52.8615H276.111C274.84 52.8615 274.205 51.7728 274.84 50.7748L290.354 26.3699H290.264Z" fill="#333333"/>
<path d="M1.03437 69.5547C1.03437 68.8289 1.62408 68.1485 2.4406 68.1485H20.2226C29.295 68.1485 36.7344 75.5425 36.7344 84.4335C36.7344 93.3245 29.295 101.036 20.2679 101.036H12.511V118.364C12.511 119.09 11.8306 119.771 11.1048 119.771H2.39523C1.57871 119.771 0.988998 119.09 0.988998 118.364V69.5094L1.03437 69.5547ZM19.5421 90.2852C22.7175 90.2852 25.3939 87.7903 25.3939 84.4335C25.3939 81.3489 22.7175 78.9901 19.5421 78.9901H12.5564V90.2852H19.5421Z" fill="#333333"/>
<path d="M43.2666 69.5547C43.2666 68.8289 43.8563 68.1485 44.6728 68.1485H53.4731C54.1989 68.1485 54.8793 68.8289 54.8793 69.5547V108.974H72.4344C73.251 108.974 73.8407 109.655 73.8407 110.381V118.41C73.8407 119.136 73.251 119.816 72.4344 119.816H44.6728C43.8563 119.816 43.2666 119.136 43.2666 118.41V69.5547Z" fill="#333333"/>
<path d="M76.6078 117.911L99.6971 68.2392C99.9239 67.7856 100.423 67.4227 100.967 67.4227H101.693C102.192 67.4227 102.736 67.7856 102.963 68.2392L126.053 117.911C126.506 118.863 125.916 119.816 124.782 119.816H116.617C115.302 119.816 114.712 119.362 114.032 117.956L111.355 112.104H91.3051L88.6287 118.002C88.2658 118.909 87.4493 119.771 85.9524 119.771H77.8325C76.7439 119.771 76.1541 118.818 76.5624 117.865L76.6078 117.911ZM106.955 102.125L101.33 89.9677H101.239L95.7052 102.125H106.91H106.955Z" fill="#333333"/>
<path d="M131.541 68.7382C131.541 68.0124 132.222 67.4227 132.948 67.4227H134.807L164.247 95.7741H164.338V69.6001C164.338 68.8743 164.928 68.1939 165.744 68.1939H174.59C175.316 68.1939 175.996 68.8743 175.996 69.6001V119.272C175.996 119.997 175.316 120.587 174.59 120.587H173.411C173.411 120.587 172.594 120.36 172.458 120.224L143.336 90.9203H143.245V118.455C143.245 119.181 142.655 119.861 141.839 119.861H133.038C132.313 119.861 131.632 119.181 131.632 118.455L131.541 68.7836V68.7382Z" fill="#333333"/>
<path d="M187.79 68.7382C187.79 68.0124 188.471 67.4227 189.197 67.4227H191.057L220.497 95.7741H220.587V69.6001C220.587 68.8743 221.177 68.1939 221.994 68.1939H230.839C231.565 68.1939 232.245 68.8743 232.245 69.6001V119.272C232.245 119.997 231.565 120.587 230.839 120.587H229.66C229.66 120.587 228.843 120.36 228.707 120.224L199.585 90.9203H199.494V118.455C199.494 119.181 198.904 119.861 198.088 119.861H189.287C188.562 119.861 187.881 119.181 187.881 118.455L187.79 68.7836V68.7382Z" fill="#333333"/>
<path d="M244.085 69.5547C244.085 68.8289 244.765 68.1485 245.491 68.1485H254.337C255.063 68.1485 255.743 68.8289 255.743 69.5547V118.41C255.743 119.136 255.063 119.816 254.337 119.816H245.491C244.765 119.816 244.085 119.136 244.085 118.41V69.5547Z" fill="#333333"/>
<path d="M267.492 68.7382C267.492 68.0124 268.172 67.4227 268.898 67.4227H270.758L300.198 95.7741H300.289V69.6001C300.289 68.8743 300.878 68.1939 301.695 68.1939H310.54C311.266 68.1939 311.947 68.8743 311.947 69.6001V119.272C311.947 119.997 311.266 120.587 310.54 120.587H309.361C309.361 120.587 308.545 120.36 308.408 120.224L279.286 90.9203H279.195V118.455C279.195 119.181 278.605 119.861 277.789 119.861H268.989C268.263 119.861 267.582 119.181 267.582 118.455L267.492 68.7836V68.7382Z" fill="#333333"/>
<path d="M346.83 67.5134C353.045 67.5134 359.804 70.0991 364.839 74.4538C365.519 74.9528 365.565 75.8601 364.975 76.4498L359.123 82.6644C358.534 83.1634 357.717 83.1634 357.127 82.7551C354.315 80.1695 351.094 79.2169 347.465 79.2169C339.436 79.2169 332.949 86.0212 332.949 94.141C332.949 102.261 339.527 108.838 347.556 108.838C349.688 108.838 351.911 108.566 354.134 107.659V98.8587H344.426C343.61 98.8587 343.02 98.269 343.02 97.5432V90.2399C343.02 89.4234 343.61 88.8337 344.426 88.8337H364.295C365.02 88.8337 365.61 89.5141 365.61 90.2399L365.701 114.645C365.701 115.008 365.429 115.597 365.111 115.824C365.111 115.824 357.49 120.633 346.83 120.633C332.133 120.633 320.339 108.974 320.339 94.2318C320.339 79.4891 332.133 67.6495 346.83 67.6495V67.5134Z" fill="#333333"/>
</svg>
