<svg xmlns="http://www.w3.org/2000/svg" version="1.1" xmlns:xlink="http://www.w3.org/1999/xlink" xmlns:svgjs="http://svgjs.com/svgjs" width="1000" height="1000"><rect width="1000" height="1000" rx="200" ry="200" fill="#ffffff"></rect><g transform="matrix(4.938271604938271,0,0,4.938271604938271,101.20901503754254,142.20664831039346)"><svg xmlns="http://www.w3.org/2000/svg" version="1.1" xmlns:xlink="http://www.w3.org/1999/xlink" xmlns:svgjs="http://svgjs.com/svgjs" width="162" height="145"><svg width="162" height="145" viewBox="0 0 162 145" fill="none" xmlns="http://www.w3.org/2000/svg">
<path d="M41.958 120.832C43.7271 114.119 48.5355 109.9 53.5707 105.545C48.5355 101.553 44.6344 96.9264 44.3622 90.2128C44.09 83.5446 47.3561 78.464 51.847 73.7917C51.0758 73.1113 50.35 72.5216 49.6696 71.8865C42.4116 65.3997 40.7786 57.0531 45.1334 48.3435C45.587 47.4363 45.7684 46.8012 44.9973 45.894C40.7786 40.9495 39.8714 35.2339 41.6405 29.0646C43.2282 23.5758 46.5396 19.221 50.6675 15.4559C56.9729 9.74031 64.4123 6.06597 72.4414 3.66178C94.0338 -2.68893 114.583 -0.0125572 133.181 12.5981C155.817 27.9759 164.617 49.9766 159.718 76.6495C153.957 108.131 135.359 129.451 104.875 139.612C81.3777 147.415 58.1069 146.008 35.7888 134.895C19.7759 126.911 8.57145 114.527 3.26408 97.2439C-0.364896 85.4951 -0.410258 73.5195 2.08466 61.5893C6.16726 42.0835 15.0582 24.8913 28.3494 10.0578C30.7536 7.38148 33.6114 5.06801 36.5145 2.89062C37.7393 1.98338 39.5538 1.48439 41.0508 1.48439C43.455 1.48439 44.589 3.84323 43.3189 5.92989C42.5024 7.24539 41.3683 8.42481 40.325 9.60422C25.7637 26.0707 17.0542 45.2589 14.65 67.1235C13.4706 77.7836 14.65 88.2169 19.3676 98.0151C24.04 107.813 31.434 115.071 40.824 120.379C41.0508 120.515 41.3683 120.605 41.958 120.878V120.832ZM52.981 125.55C53.6615 125.777 54.2965 126.004 54.977 126.185C69.6743 130.268 84.4624 130.54 99.069 126.004C125.697 117.793 142.027 99.9657 147.153 72.5216C150.51 54.5581 145.611 38.636 131.684 26.5243C113.086 10.3754 91.811 7.06394 68.7671 15.6374C63.369 17.6333 58.6059 20.718 54.7501 25.0727C52.7088 27.3862 51.1212 29.9718 50.6675 33.1018C50.35 35.2792 50.7583 37.2298 52.4367 38.8628C52.7542 38.6814 52.9357 38.5453 53.1171 38.4092C60.3297 32.1039 68.5856 27.8398 77.7488 25.2995C83.2829 23.7572 88.9079 23.0314 94.6235 24.3469C99.2051 25.4356 102.97 27.7037 104.331 32.5575C105.692 37.502 103.514 41.4485 99.8855 44.5331C97.7081 46.3929 95.3039 48.0713 92.7183 49.2054C80.9695 54.422 68.8578 56.3273 56.2017 52.9251C55.7481 52.789 54.8862 53.1065 54.7048 53.4241C53.2532 56.0551 52.8903 58.8675 54.8409 61.3625C56.0656 62.9501 57.744 64.1749 59.2864 65.5358C60.4658 66.5791 61.5545 66.443 62.9153 65.6265C75.2992 58.55 88.4542 53.6055 102.789 52.29C106.826 51.9271 110.863 52.0179 114.81 53.3334C117.94 54.3767 120.48 56.1912 121.659 59.4572C123.02 63.2223 121.841 66.4884 119.437 69.4369C116.715 72.7484 113.177 74.9258 109.275 76.5134C94.0338 82.8188 78.4746 83.5446 62.6432 78.8269C61.9627 78.6001 60.874 78.464 60.4204 78.8269C57.9709 80.7321 55.8388 83.0456 54.6141 85.9941C53.48 88.6251 53.6161 91.3015 55.5213 93.4335C57.0636 95.2026 59.0596 96.6089 60.9194 98.1058C62.0535 99.0131 63.0968 98.9223 64.4123 98.1512C76.8869 90.8932 90.2234 86.1756 104.649 84.8601C109.82 84.4064 114.991 84.4972 119.936 86.357C127.33 89.1241 128.872 96.3821 123.111 101.826C121.206 103.595 118.983 105.182 116.67 106.316C101.972 113.302 86.549 115.162 70.5362 112.395C65.6824 109.991 62.0988 112.077 58.9235 115.616C58.2884 116.296 57.608 116.931 56.9275 117.612C54.7501 119.653 53.4346 122.102 53.1171 125.414L52.981 125.55ZM110.682 63.0409C104.286 59.9562 83.9634 64.81 74.0291 70.4803C83.7366 73.0659 104.603 69.8452 110.682 63.0409ZM112.451 95.8377C100.929 94.8851 90.2234 97.9697 79.8808 102.687C91.2667 102.914 102.199 101.19 112.451 95.8377ZM90.7223 36.0504C81.0148 34.7349 72.7136 38.3638 64.8205 43.4444C74.2105 43.6712 83.0108 41.7206 90.7223 36.0504Z" fill="url(#paint0_linear_0_38)"></path>
<defs>
<linearGradient id="paint0_linear_0_38" x1="80.6931" y1="0.34938" x2="80.6931" y2="144.533" gradientUnits="userSpaceOnUse">
<stop stop-color="#77B62F"></stop>
<stop offset="1" stop-color="#549707"></stop>
</linearGradient>
</defs>
</svg></svg></g></svg>